<svg width="1600" height="132" viewBox="0 0 1600 132" fill="none" xmlns="http://www.w3.org/2000/svg">
<path d="M98.2697 129.008L86.6981 97.68H31.5104L19.7607 129.008H0L48.9568 2.64H70.4978L119.099 129.008H98.2697ZM59.2822 23.76L37.3852 82.016H80.8232L59.2822 23.76Z" fill="#1D1D1D"/>
<path d="M175.347 129.008H134.936V2.64H175.347C216.115 2.64 239.614 28.336 239.614 65.296C239.614 101.728 215.225 129.008 175.347 129.008ZM154.519 19.36V112.288H174.457C203.831 112.288 219.676 94.336 219.676 65.296C219.676 36.784 204.009 19.36 174.457 19.36H154.519Z" fill="#1D1D1D"/>
<path d="M277.912 129.008H258.329V2.64H277.912V129.008Z" fill="#1D1D1D"/>
<path d="M354.574 129.008H334.991V20.064H293.333V2.64H396.232V20.064H354.574V129.008Z" fill="#1D1D1D"/>
<path d="M431.34 129.008H411.757V2.64H431.34V129.008Z" fill="#1D1D1D"/>
<path d="M510.494 81.664V129.008H490.734V81.664L444.803 2.64H466.166L501.237 63.536L536.664 2.64H556.603L510.494 81.664Z" fill="#1D1D1D"/>
<path d="M641.134 129.008L629.562 97.68H574.375L562.625 129.008H542.864L591.821 2.64H613.362L661.963 129.008H641.134ZM602.146 23.76L580.249 82.016H623.687L602.146 23.76Z" fill="#1D1D1D"/>
<path d="M732.807 129.008H713.224V2.64H760.935C790.309 2.64 807.933 16.896 807.933 42.064C807.933 60.192 796.362 74.096 776.957 78.672L811.672 129.008H788.173L756.306 81.488H732.807V129.008ZM732.807 18.832V65.296H759.689C777.847 65.296 788.173 57.376 788.173 42.064C788.173 26.928 777.847 18.832 759.689 18.832H732.807Z" fill="#1D1D1D"/>
<path d="M915 129.008L903.428 97.68H848.241L836.491 129.008H816.73L865.687 2.64H887.228L935.829 129.008H915ZM876.012 23.76L854.115 82.016H897.553L876.012 23.76Z" fill="#1D1D1D"/>
<path d="M999.391 131.648C963.786 131.648 936.192 102.96 936.192 65.648C936.192 28.512 963.786 0 999.391 0C1031.44 0 1057.07 21.12 1061.88 52.272H1041.05C1037.49 31.856 1020.75 17.424 999.569 17.424C974.289 17.424 956.487 37.664 956.487 65.648C956.487 93.984 974.289 114.224 999.569 114.224C1020.75 114.224 1037.49 99.616 1041.05 79.2H1061.88C1057.07 110.528 1031.44 131.648 999.391 131.648Z" fill="#1D1D1D"/>
<path d="M1100.03 129.008H1080.45V2.64H1100.03V55.44H1164.83V2.64H1184.42V129.008H1164.83V72.336H1100.03V129.008Z" fill="#1D1D1D"/>
<path d="M1268.84 129.008L1228.43 32.384V129.008H1210.45V2.64H1234.48L1277.39 105.248L1320.11 2.64H1344.32V129.008H1326.16V32.208L1285.58 129.008H1268.84Z" fill="#1D1D1D"/>
<path d="M1458.12 129.008L1446.55 97.68H1391.36L1379.61 129.008H1359.85L1408.81 2.64H1430.35L1478.95 129.008H1458.12ZM1419.13 23.76L1397.24 82.016H1440.67L1419.13 23.76Z" fill="#1D1D1D"/>
<path d="M1580.24 129.008L1512.95 30.272V129.008H1494.79V2.64H1516.15L1581.84 98.736V2.64H1600V129.008H1580.24Z" fill="#1D1D1D"/>
</svg>
