<svg width="1600" height="133" viewBox="0 0 1600 133" fill="none" xmlns="http://www.w3.org/2000/svg">
<path d="M98.2697 129.656L86.6981 98.328H31.5104L19.7607 129.656H0L48.9568 3.28795H70.4978L119.099 129.656H98.2697ZM59.2822 24.4079L37.3852 82.664H80.8232L59.2822 24.4079Z" fill="#1D1D1D"/>
<path d="M175.347 129.656H134.936V3.28795H175.347C216.115 3.28795 239.614 28.984 239.614 65.944C239.614 102.376 215.225 129.656 175.347 129.656ZM154.519 20.008V112.936H174.457C203.831 112.936 219.676 94.984 219.676 65.944C219.676 37.4319 204.009 20.008 174.457 20.008H154.519Z" fill="white"/>
<path d="M277.912 129.656H258.329V3.28795H277.912V129.656Z" fill="white"/>
<path d="M354.574 129.656H334.991V20.712H293.333V3.28795H396.232V20.712H354.574V129.656Z" fill="white"/>
<path d="M431.34 129.656H411.757V3.28795H431.34V129.656Z" fill="white"/>
<path d="M510.494 82.312V129.656H490.734V82.312L444.803 3.28795H466.166L501.237 64.184L536.664 3.28795H556.603L510.494 82.312Z" fill="white"/>
<path d="M641.134 129.656L629.562 98.328H574.375L562.625 129.656H542.864L591.821 3.28795H613.362L661.963 129.656H641.134ZM602.146 24.4079L580.249 82.664H623.687L602.146 24.4079Z" fill="white"/>
<path d="M732.807 129.656H713.224V3.28795H760.935C790.309 3.28795 807.933 17.544 807.933 42.712C807.933 60.84 796.362 74.744 776.957 79.32L811.672 129.656H788.173L756.306 82.136H732.807V129.656ZM732.807 19.4799V65.944H759.689C777.847 65.944 788.173 58.024 788.173 42.712C788.173 27.5759 777.847 19.4799 759.689 19.4799H732.807Z" fill="#1D1D1D"/>
<path d="M915 129.656L903.428 98.328H848.241L836.491 129.656H816.73L865.687 3.28795H887.228L935.829 129.656H915ZM876.012 24.4079L854.115 82.664H897.553L876.012 24.4079Z" fill="white"/>
<path d="M999.391 132.296C963.786 132.296 936.192 103.608 936.192 66.296C936.192 29.1599 963.786 0.647949 999.391 0.647949C1031.44 0.647949 1057.07 21.768 1061.88 52.92H1041.05C1037.49 32.5039 1020.75 18.072 999.569 18.072C974.289 18.072 956.487 38.3119 956.487 66.296C956.487 94.632 974.289 114.872 999.569 114.872C1020.75 114.872 1037.49 100.264 1041.05 79.848H1061.88C1057.07 111.176 1031.44 132.296 999.391 132.296Z" fill="white"/>
<path d="M1100.03 129.656H1080.45V3.28795H1100.03V56.088H1164.83V3.28795H1184.42V129.656H1164.83V72.9839H1100.03V129.656Z" fill="white"/>
<path d="M1268.84 129.656L1228.43 33.032V129.656H1210.45V3.28795H1234.48L1277.39 105.896L1320.11 3.28795H1344.32V129.656H1326.16V32.856L1285.58 129.656H1268.84Z" fill="white"/>
<path d="M1458.12 129.656L1446.55 98.328H1391.36L1379.61 129.656H1359.85L1408.81 3.28795H1430.35L1478.95 129.656H1458.12ZM1419.13 24.4079L1397.24 82.664H1440.67L1419.13 24.4079Z" fill="white"/>
<path d="M1580.24 129.656L1512.95 30.9199V129.656H1494.79V3.28795H1516.15L1581.84 99.384V3.28795H1600V129.656H1580.24Z" fill="white"/>
</svg>
